<svg width="1031" height="1257" viewBox="0 0 1031 1257" fill="none" xmlns="http://www.w3.org/2000/svg">
<path d="M21.4962 283.529L17.1446 275.042L12.6086 283.438L9.01682 281.278L14.2694 273.275L4.70131 273.565L4.73913 269.374L14.2676 269.9L9.3112 261.752L12.9408 259.721L17.2923 268.208L21.8284 259.812L25.4201 261.972L20.1675 269.975L29.7356 269.685L29.6978 273.877L20.1693 273.35L25.1257 281.499L21.4962 283.529ZM97.3542 241.085L93.0027 232.598L88.4666 240.994L84.8748 238.834L90.1275 230.831L80.5593 231.121L80.5971 226.93L90.1257 227.456L85.1692 219.308L88.7988 217.277L93.1503 225.764L97.6864 217.368L101.278 219.528L96.0255 227.531L105.594 227.241L105.556 231.432L96.0273 230.906L100.984 239.054L97.3542 241.085ZM173.212 198.641L168.861 190.154L164.325 198.55L160.733 196.389L165.985 188.387L156.417 188.677L156.455 184.485L165.984 185.012L161.027 176.863L164.657 174.833L169.008 183.32L173.544 174.923L177.136 177.084L171.884 185.087L181.452 184.797L181.414 188.988L171.885 188.461L176.842 196.61L173.212 198.641ZM249.07 156.197L244.719 147.71L240.183 156.106L236.591 153.945L241.843 145.942L232.275 146.232L232.313 142.041L241.842 142.568L236.885 134.419L240.515 132.388L244.866 140.875L249.402 132.479L252.994 134.64L247.742 142.642L257.31 142.352L257.272 146.544L247.743 146.017L252.7 154.166L249.07 156.197ZM324.928 113.752L320.577 105.265L316.041 113.661L312.449 111.501L317.702 103.498L308.133 103.788L308.171 99.5967L317.7 100.123L312.743 91.9748L316.373 89.944L320.724 98.431L325.26 90.0349L328.852 92.1954L323.6 100.198L333.168 99.9082L333.13 104.1L323.601 103.573L328.558 111.721L324.928 113.752ZM400.786 71.308L396.435 62.821L391.899 71.217L388.307 69.0566L393.56 61.0539L383.991 61.3437L384.029 57.1525L393.558 57.6791L388.601 49.5306L392.231 47.4997L396.582 55.9867L401.118 47.5907L404.71 49.7511L399.458 57.7538L409.026 57.464L408.988 61.6552L399.459 61.1286L404.416 69.2771L400.786 71.308ZM476.644 28.8637L472.293 20.3767L467.757 28.7728L464.165 26.6123L469.418 18.6096L459.849 18.8995L459.887 14.7082L469.416 15.2348L464.459 7.08627L468.089 5.05544L472.44 13.5424L476.976 5.14637L480.568 7.30683L475.316 15.3095L484.884 15.0197L484.846 19.211L475.317 18.6843L480.274 26.8329L476.644 28.8637ZM57.6293 348.108L53.2778 339.621L48.7418 348.017L45.15 345.857L50.4026 337.854L40.8345 338.144L40.8723 333.952L50.4008 334.479L45.4444 326.33L49.0739 324.3L53.4255 332.787L57.9615 324.391L61.5533 326.551L56.3007 334.554L65.8688 334.264L65.831 338.455L56.3025 337.929L61.2589 346.077L57.6293 348.108ZM133.487 305.664L129.136 297.177L124.6 305.573L121.008 303.412L126.261 295.41L116.693 295.699L116.73 291.508L126.259 292.035L121.302 283.886L124.932 281.855L129.283 290.342L133.82 281.946L137.411 284.107L132.159 292.109L141.727 291.82L141.689 296.011L132.16 295.484L137.117 303.633L133.487 305.664ZM209.345 263.219L204.994 254.732L200.458 263.128L196.866 260.968L202.119 252.965L192.551 253.255L192.588 249.064L202.117 249.59L197.16 241.442L200.79 239.411L205.142 247.898L209.678 239.502L213.269 241.663L208.017 249.665L217.585 249.375L217.547 253.567L208.019 253.04L212.975 261.189L209.345 263.219ZM285.203 220.775L280.852 212.288L276.316 220.684L272.724 218.524L277.977 210.521L268.409 210.811L268.446 206.62L277.975 207.146L273.018 198.998L276.648 196.967L281 205.454L285.536 197.058L289.127 199.218L283.875 207.221L293.443 206.931L293.405 211.122L283.877 210.596L288.833 218.744L285.203 220.775ZM361.061 178.331L356.71 169.844L352.174 178.24L348.582 176.079L353.835 168.077L344.267 168.367L344.304 164.175L353.833 164.702L348.876 156.553L352.506 154.523L356.858 163.01L361.394 154.614L364.985 156.774L359.733 164.777L369.301 164.487L369.263 168.678L359.735 168.151L364.691 176.3L361.061 178.331ZM436.919 135.887L432.568 127.4L428.032 135.796L424.44 133.635L429.693 125.632L420.125 125.922L420.162 121.731L429.691 122.258L424.734 114.109L428.364 112.078L432.716 120.565L437.252 112.169L440.843 114.33L435.591 122.332L445.159 122.043L445.121 126.234L435.593 125.707L440.549 133.856L436.919 135.887ZM512.777 93.4423L508.426 84.9553L503.89 93.3514L500.298 91.1909L505.551 83.1882L495.983 83.478L496.02 79.2868L505.549 79.8134L500.593 71.6649L504.222 69.634L508.574 78.121L513.11 69.725L516.701 71.8854L511.449 79.8881L521.017 79.5983L520.979 83.7895L511.451 83.2629L516.407 91.4115L512.777 93.4423ZM93.7625 412.687L89.411 404.2L84.8749 412.596L81.2832 410.435L86.5358 402.432L76.9677 402.722L77.0055 398.531L86.534 399.058L81.5775 390.909L85.2071 388.878L89.5586 397.365L94.0947 388.969L97.6865 391.13L92.4338 399.132L102.002 398.842L101.964 403.034L92.4356 402.507L97.3921 410.656L93.7625 412.687ZM169.621 370.242L165.269 361.755L160.733 370.151L157.141 367.991L162.394 359.988L152.826 360.278L152.863 356.087L162.392 356.613L157.436 348.465L161.065 346.434L165.417 354.921L169.953 346.525L173.544 348.685L168.292 356.688L177.86 356.398L177.822 360.589L168.294 360.063L173.25 368.211L169.621 370.242ZM245.479 327.798L241.127 319.311L236.591 327.707L232.999 325.547L238.252 317.544L228.684 317.834L228.722 313.642L238.25 314.169L233.294 306.021L236.923 303.99L241.275 312.477L245.811 304.081L249.403 306.241L244.15 314.244L253.718 313.954L253.68 318.145L244.152 317.619L249.108 325.767L245.479 327.798ZM321.337 285.354L316.985 276.867L312.449 285.263L308.857 283.102L314.11 275.1L304.542 275.389L304.58 271.198L314.108 271.725L309.152 263.576L312.781 261.545L317.133 270.032L321.669 261.636L325.261 263.797L320.008 271.8L329.576 271.51L329.538 275.701L320.01 275.174L324.966 283.323L321.337 285.354ZM397.195 242.909L392.843 234.422L388.307 242.818L384.715 240.658L389.968 232.655L380.4 232.945L380.438 228.754L389.966 229.281L385.01 221.132L388.639 219.101L392.991 227.588L397.527 219.192L401.119 221.353L395.866 229.355L405.434 229.065L405.396 233.257L395.868 232.73L400.824 240.879L397.195 242.909ZM473.053 200.465L468.701 191.978L464.165 200.374L460.573 198.214L465.826 190.211L456.258 190.501L456.296 186.31L465.824 186.836L460.868 178.688L464.497 176.657L468.849 185.144L473.385 176.748L476.977 178.908L471.724 186.911L481.292 186.621L481.254 190.812L471.726 190.286L476.682 198.434L473.053 200.465ZM548.911 158.021L544.559 149.534L540.023 157.93L536.431 155.769L541.684 147.767L532.116 148.057L532.154 143.865L541.682 144.392L536.726 136.243L540.355 134.213L544.707 142.7L549.243 134.304L552.835 136.464L547.582 144.467L557.15 144.177L557.112 148.368L547.584 147.842L552.54 155.99L548.911 158.021ZM129.896 477.265L125.544 468.778L121.008 477.174L117.416 475.014L122.669 467.011L113.101 467.301L113.139 463.11L122.667 463.636L117.711 455.488L121.34 453.457L125.692 461.944L130.228 453.548L133.82 455.708L128.567 463.711L138.135 463.421L138.097 467.612L128.569 467.086L133.525 475.234L129.896 477.265ZM205.754 434.821L201.402 426.334L196.866 434.73L193.274 432.569L198.527 424.567L188.959 424.857L188.997 420.665L198.525 421.192L193.569 413.043L197.198 411.013L201.55 419.5L206.086 411.103L209.678 413.264L204.425 421.267L213.993 420.977L213.955 425.168L204.427 424.641L209.383 432.79L205.754 434.821ZM281.612 392.377L277.26 383.89L272.724 392.286L269.132 390.125L274.385 382.122L264.817 382.412L264.855 378.221L274.383 378.748L269.427 370.599L273.056 368.568L277.408 377.055L281.944 368.659L285.536 370.82L280.283 378.822L289.851 378.533L289.813 382.724L280.285 382.197L285.241 390.346L281.612 392.377ZM357.47 349.932L353.118 341.445L348.582 349.841L344.99 347.681L350.243 339.678L340.675 339.968L340.713 335.777L350.241 336.303L345.285 328.155L348.914 326.124L353.266 334.611L357.802 326.215L361.394 328.375L356.141 336.378L365.709 336.088L365.671 340.28L356.143 339.753L361.099 347.901L357.47 349.932ZM433.328 307.488L428.976 299.001L424.44 307.397L420.848 305.237L426.101 297.234L416.533 297.524L416.571 293.332L426.099 293.859L421.143 285.711L424.772 283.68L429.124 292.167L433.66 283.771L437.252 285.931L431.999 293.934L441.567 293.644L441.529 297.835L432.001 297.309L436.957 305.457L433.328 307.488ZM509.186 265.044L504.834 256.557L500.298 264.953L496.706 262.792L501.959 254.79L492.391 255.08L492.429 250.888L501.957 251.415L497.001 243.266L500.63 241.235L504.982 249.722L509.518 241.326L513.11 243.487L507.857 251.49L517.425 251.2L517.387 255.391L507.859 254.864L512.815 263.013L509.186 265.044ZM585.044 222.599L580.692 214.112L576.156 222.509L572.564 220.348L577.817 212.345L568.249 212.635L568.287 208.444L577.815 208.971L572.859 200.822L576.488 198.791L580.84 207.278L585.376 198.882L588.968 201.043L583.715 209.045L593.283 208.755L593.245 212.947L583.717 212.42L588.673 220.569L585.044 222.599ZM166.029 541.844L161.677 533.357L157.141 541.753L153.55 539.592L158.802 531.59L149.234 531.879L149.272 527.688L158.8 528.215L153.844 520.066L157.473 518.035L161.825 526.522L166.361 518.126L169.953 520.287L164.7 528.29L174.268 528L174.231 532.191L164.702 531.664L169.658 539.813L166.029 541.844ZM241.887 499.399L237.535 490.912L232.999 499.308L229.408 497.148L234.66 489.145L225.092 489.435L225.13 485.244L234.658 485.771L229.702 477.622L233.331 475.591L237.683 484.078L242.219 475.682L245.811 477.843L240.558 485.845L250.126 485.555L250.089 489.747L240.56 489.22L245.516 497.369L241.887 499.399ZM317.745 456.955L313.393 448.468L308.857 456.864L305.266 454.704L310.518 446.701L300.95 446.991L300.988 442.8L310.516 443.326L305.56 435.178L309.19 433.147L313.541 441.634L318.077 433.238L321.669 435.398L316.416 443.401L325.984 443.111L325.947 447.302L316.418 446.776L321.374 454.924L317.745 456.955ZM393.603 414.511L389.251 406.024L384.715 414.42L381.124 412.259L386.376 404.257L376.808 404.547L376.846 400.355L386.374 400.882L381.418 392.733L385.048 390.703L389.399 399.19L393.935 390.794L397.527 392.954L392.274 400.957L401.842 400.667L401.805 404.858L392.276 404.332L397.232 412.48L393.603 414.511ZM469.461 372.067L465.109 363.58L460.573 371.976L456.982 369.815L462.234 361.813L452.666 362.102L452.704 357.911L462.232 358.438L457.276 350.289L460.906 348.258L465.257 356.745L469.793 348.349L473.385 350.51L468.132 358.512L477.7 358.223L477.663 362.414L468.134 361.887L473.091 370.036L469.461 372.067ZM545.319 329.622L540.967 321.135L536.431 329.531L532.84 327.371L538.092 319.368L528.524 319.658L528.562 315.467L538.09 315.993L533.134 307.845L536.764 305.814L541.115 314.301L545.651 305.905L549.243 308.065L543.99 316.068L553.558 315.778L553.521 319.97L543.992 319.443L548.949 327.591L545.319 329.622ZM621.177 287.178L616.825 278.691L612.289 287.087L608.698 284.927L613.95 276.924L604.382 277.214L604.42 273.023L613.948 273.549L608.992 265.401L612.622 263.37L616.973 271.857L621.509 263.461L625.101 265.621L619.848 273.624L629.416 273.334L629.379 277.525L619.85 276.999L624.807 285.147L621.177 287.178ZM202.162 606.422L197.811 597.935L193.274 606.331L189.683 604.171L194.935 596.168L185.367 596.458L185.405 592.267L194.934 592.793L189.977 584.645L193.607 582.614L197.958 591.101L202.494 582.705L206.086 584.865L200.833 592.868L210.401 592.578L210.364 596.77L200.835 596.243L205.792 604.391L202.162 606.422ZM278.02 563.978L273.669 555.491L269.132 563.887L265.541 561.727L270.793 553.724L261.225 554.014L261.263 549.822L270.792 550.349L265.835 542.201L269.465 540.17L273.816 548.657L278.352 540.261L281.944 542.421L276.691 550.424L286.26 550.134L286.222 554.325L276.693 553.799L281.65 561.947L278.02 563.978ZM353.878 521.534L349.527 513.047L344.99 521.443L341.399 519.282L346.651 511.28L337.083 511.569L337.121 507.378L346.65 507.905L341.693 499.756L345.323 497.725L349.674 506.212L354.21 497.816L357.802 499.977L352.549 507.98L362.118 507.69L362.08 511.881L352.551 511.354L357.508 519.503L353.878 521.534ZM429.736 479.089L425.385 470.602L420.849 478.999L417.257 476.838L422.509 468.835L412.941 469.125L412.979 464.934L422.508 465.461L417.551 457.312L421.181 455.281L425.532 463.768L430.068 455.372L433.66 457.533L428.407 465.535L437.976 465.245L437.938 469.437L428.409 468.91L433.366 477.059L429.736 479.089ZM505.594 436.645L501.243 428.158L496.707 436.554L493.115 434.394L498.367 426.391L488.799 426.681L488.837 422.49L498.366 423.016L493.409 414.868L497.039 412.837L501.39 421.324L505.926 412.928L509.518 415.088L504.265 423.091L513.834 422.801L513.796 426.992L504.267 426.466L509.224 434.614L505.594 436.645ZM581.452 394.201L577.101 385.714L572.565 394.11L568.973 391.95L574.225 383.947L564.657 384.237L564.695 380.045L574.224 380.572L569.267 372.423L572.897 370.393L577.248 378.88L581.784 370.484L585.376 372.644L580.123 380.647L589.692 380.357L589.654 384.548L580.125 384.022L585.082 392.17L581.452 394.201ZM657.31 351.757L652.959 343.27L648.423 351.666L644.831 349.505L650.083 341.503L640.515 341.792L640.553 337.601L650.082 338.128L645.125 329.979L648.755 327.948L653.106 336.435L657.642 328.039L661.234 330.2L655.982 338.202L665.55 337.913L665.512 342.104L655.983 341.577L660.94 349.726L657.31 351.757ZM238.295 671.001L233.944 662.514L229.408 670.91L225.816 668.749L231.068 660.747L221.5 661.037L221.538 656.845L231.067 657.372L226.11 649.223L229.74 647.193L234.091 655.68L238.627 647.284L242.219 649.444L236.967 657.447L246.535 657.157L246.497 661.348L236.968 660.821L241.925 668.97L238.295 671.001ZM314.153 628.557L309.802 620.07L305.266 628.466L301.674 626.305L306.927 618.302L297.358 618.592L297.396 614.401L306.925 614.928L301.968 606.779L305.598 604.748L309.949 613.235L314.485 604.839L318.077 607L312.825 615.002L322.393 614.713L322.355 618.904L312.826 618.377L317.783 626.526L314.153 628.557ZM390.011 586.112L385.66 577.625L381.124 586.021L377.532 583.861L382.785 575.858L373.216 576.148L373.254 571.957L382.783 572.483L377.826 564.335L381.456 562.304L385.807 570.791L390.343 562.395L393.935 564.555L388.683 572.558L398.251 572.268L398.213 576.46L388.684 575.933L393.641 584.081L390.011 586.112ZM465.869 543.668L461.518 535.181L456.982 543.577L453.39 541.417L458.643 533.414L449.074 533.704L449.112 529.513L458.641 530.039L453.684 521.891L457.314 519.86L461.665 528.347L466.201 519.951L469.793 522.111L464.541 530.114L474.109 529.824L474.071 534.015L464.542 533.489L469.499 541.637L465.869 543.668ZM541.727 501.224L537.376 492.737L532.84 501.133L529.248 498.972L534.501 490.97L524.932 491.26L524.97 487.068L534.499 487.595L529.542 479.446L533.172 477.416L537.523 485.903L542.059 477.506L545.651 479.667L540.399 487.67L549.967 487.38L549.929 491.571L540.4 491.044L545.357 499.193L541.727 501.224ZM617.585 458.779L613.234 450.292L608.698 458.689L605.106 456.528L610.359 448.525L600.79 448.815L600.828 444.624L610.357 445.151L605.4 437.002L609.03 434.971L613.381 443.458L617.918 435.062L621.509 437.223L616.257 445.225L625.825 444.935L625.787 449.127L616.258 448.6L621.215 456.749L617.585 458.779ZM693.443 416.335L689.092 407.848L684.556 416.244L680.964 414.084L686.217 406.081L676.648 406.371L676.686 402.18L686.215 402.706L681.258 394.558L684.888 392.527L689.239 401.014L693.776 392.618L697.367 394.778L692.115 402.781L701.683 402.491L701.645 406.682L692.116 406.156L697.073 414.304L693.443 416.335ZM274.428 735.579L270.077 727.092L265.541 735.489L261.949 733.328L267.202 725.325L257.634 725.615L257.671 721.424L267.2 721.951L262.243 713.802L265.873 711.771L270.225 720.258L274.761 711.862L278.352 714.023L273.1 722.025L282.668 721.735L282.63 725.927L273.102 725.4L278.058 733.549L274.428 735.579ZM350.286 693.135L345.935 684.648L341.399 693.044L337.807 690.884L343.06 682.881L333.492 683.171L333.529 678.98L343.058 679.506L338.101 671.358L341.731 669.327L346.083 677.814L350.619 669.418L354.21 671.578L348.958 679.581L358.526 679.291L358.488 683.482L348.96 682.956L353.916 691.104L350.286 693.135ZM426.144 650.691L421.793 642.204L417.257 650.6L413.665 648.439L418.918 640.437L409.35 640.727L409.387 636.535L418.916 637.062L413.959 628.913L417.589 626.883L421.941 635.37L426.477 626.974L430.068 629.134L424.816 637.137L434.384 636.847L434.346 641.038L424.818 640.512L429.774 648.66L426.144 650.691ZM502.002 608.247L497.651 599.76L493.115 608.156L489.523 605.995L494.776 597.993L485.208 598.282L485.245 594.091L494.774 594.618L489.817 586.469L493.447 584.438L497.799 592.925L502.335 584.529L505.926 586.69L500.674 594.692L510.242 594.403L510.204 598.594L500.676 598.067L505.632 606.216L502.002 608.247ZM577.86 565.802L573.509 557.315L568.973 565.711L565.381 563.551L570.634 555.548L561.066 555.838L561.103 551.647L570.632 552.173L565.676 544.025L569.305 541.994L573.657 550.481L578.193 542.085L581.784 544.245L576.532 552.248L586.1 551.958L586.062 556.15L576.534 555.623L581.49 563.772L577.86 565.802ZM653.718 523.358L649.367 514.871L644.831 523.267L641.239 521.107L646.492 513.104L636.924 513.394L636.961 509.203L646.49 509.729L641.534 501.581L645.163 499.55L649.515 508.037L654.051 499.641L657.642 501.801L652.39 509.804L661.958 509.514L661.92 513.705L652.392 513.179L657.348 521.327L653.718 523.358ZM729.577 480.914L725.225 472.427L720.689 480.823L717.097 478.662L722.35 470.66L712.782 470.95L712.819 466.758L722.348 467.285L717.392 459.136L721.021 457.106L725.373 465.593L729.909 457.196L733.5 459.357L728.248 467.36L737.816 467.07L737.778 471.261L728.25 470.734L733.206 478.883L729.577 480.914ZM310.562 800.158L306.21 791.671L301.674 800.067L298.082 797.907L303.335 789.904L293.767 790.194L293.805 786.003L303.333 786.529L298.377 778.381L302.006 776.35L306.358 784.837L310.894 776.441L314.486 778.601L309.233 786.604L318.801 786.314L318.763 790.505L309.235 789.979L314.191 798.127L310.562 800.158ZM386.42 757.714L382.068 749.227L377.532 757.623L373.94 755.462L379.193 747.46L369.625 747.75L369.663 743.558L379.191 744.085L374.235 735.936L377.864 733.905L382.216 742.392L386.752 733.996L390.344 736.157L385.091 744.16L394.659 743.87L394.621 748.061L385.093 747.534L390.049 755.683L386.42 757.714ZM462.278 715.269L457.926 706.782L453.39 715.179L449.798 713.018L455.051 705.015L445.483 705.305L445.521 701.114L455.049 701.641L450.093 693.492L453.722 691.461L458.074 699.948L462.61 691.552L466.202 693.713L460.949 701.715L470.517 701.425L470.479 705.617L460.951 705.09L465.907 713.239L462.278 715.269ZM538.136 672.825L533.784 664.338L529.248 672.734L525.656 670.574L530.909 662.571L521.341 662.861L521.379 658.67L530.907 659.196L525.951 651.048L529.58 649.017L533.932 657.504L538.468 649.108L542.06 651.268L536.807 659.271L546.375 658.981L546.337 663.172L536.809 662.646L541.765 670.794L538.136 672.825ZM613.994 630.381L609.642 621.894L605.106 630.29L601.514 628.13L606.767 620.127L597.199 620.417L597.237 616.225L606.765 616.752L601.809 608.603L605.438 606.573L609.79 615.06L614.326 606.664L617.918 608.824L612.665 616.827L622.233 616.537L622.195 620.728L612.667 620.202L617.623 628.35L613.994 630.381ZM689.852 587.937L685.5 579.45L680.964 587.846L677.372 585.685L682.625 577.683L673.057 577.972L673.095 573.781L682.623 574.308L677.667 566.159L681.296 564.128L685.648 572.615L690.184 564.219L693.776 566.38L688.523 574.382L698.091 574.093L698.053 578.284L688.525 577.757L693.481 585.906L689.852 587.937ZM765.71 545.492L761.358 537.005L756.822 545.401L753.23 543.241L758.483 535.238L748.915 535.528L748.953 531.337L758.481 531.863L753.525 523.715L757.154 521.684L761.506 530.171L766.042 521.775L769.634 523.936L764.381 531.938L773.949 531.648L773.911 535.84L764.383 535.313L769.339 543.462L765.71 545.492ZM346.695 864.737L342.343 856.25L337.807 864.646L334.215 862.485L339.468 854.483L329.9 854.772L329.938 850.581L339.466 851.108L334.51 842.959L338.139 840.928L342.491 849.415L347.027 841.019L350.619 843.18L345.366 851.182L354.934 850.893L354.896 855.084L345.368 854.557L350.324 862.706L346.695 864.737ZM422.553 822.292L418.201 813.805L413.665 822.201L410.073 820.041L415.326 812.038L405.758 812.328L405.796 808.137L415.324 808.663L410.368 800.515L413.997 798.484L418.349 806.971L422.885 798.575L426.477 800.735L421.224 808.738L430.792 808.448L430.754 812.64L421.226 812.113L426.182 820.262L422.553 822.292ZM498.411 779.848L494.059 771.361L489.523 779.757L485.931 777.597L491.184 769.594L481.616 769.884L481.654 765.693L491.182 766.219L486.226 758.071L489.855 756.04L494.207 764.527L498.743 756.131L502.335 758.291L497.082 766.294L506.65 766.004L506.612 770.195L497.084 769.669L502.04 777.817L498.411 779.848ZM574.269 737.404L569.917 728.917L565.381 737.313L561.789 735.152L567.042 727.15L557.474 727.44L557.512 723.248L567.04 723.775L562.084 715.626L565.713 713.596L570.065 722.083L574.601 713.686L578.193 715.847L572.94 723.85L582.508 723.56L582.47 727.751L572.942 727.224L577.898 735.373L574.269 737.404ZM650.127 694.96L645.775 686.473L641.239 694.869L637.647 692.708L642.9 684.705L633.332 684.995L633.37 680.804L642.898 681.331L637.942 673.182L641.571 671.151L645.923 679.638L650.459 671.242L654.051 673.403L648.798 681.405L658.366 681.115L658.328 685.307L648.8 684.78L653.756 692.929L650.127 694.96ZM725.985 652.515L721.633 644.028L717.097 652.424L713.505 650.264L718.758 642.261L709.19 642.551L709.228 638.36L718.756 638.886L713.8 630.738L717.429 628.707L721.781 637.194L726.317 628.798L729.909 630.958L724.656 638.961L734.224 638.671L734.186 642.863L724.658 642.336L729.614 650.484L725.985 652.515ZM801.843 610.071L797.491 601.584L792.955 609.98L789.364 607.82L794.616 599.817L785.048 600.107L785.086 595.915L794.614 596.442L789.658 588.294L793.287 586.263L797.639 594.75L802.175 586.354L805.767 588.514L800.514 596.517L810.082 596.227L810.045 600.418L800.516 599.892L805.472 608.04L801.843 610.071ZM382.828 929.315L378.476 920.828L373.94 929.224L370.349 927.064L375.601 919.061L366.033 919.351L366.071 915.16L375.599 915.686L370.643 907.538L374.273 905.507L378.624 913.994L383.16 905.598L386.752 907.758L381.499 915.761L391.067 915.471L391.03 919.662L381.501 919.136L386.457 927.284L382.828 929.315ZM458.686 886.871L454.334 878.384L449.798 886.78L446.207 884.62L451.459 876.617L441.891 876.907L441.929 872.715L451.457 873.242L446.501 865.093L450.131 863.063L454.482 871.55L459.018 863.154L462.61 865.314L457.357 873.317L466.925 873.027L466.888 877.218L457.359 876.692L462.315 884.84L458.686 886.871ZM534.544 844.427L530.192 835.94L525.656 844.336L522.065 842.175L527.317 834.173L517.749 834.462L517.787 830.271L527.315 830.798L522.359 822.649L525.989 820.618L530.34 829.105L534.876 820.709L538.468 822.87L533.215 830.872L542.783 830.583L542.746 834.774L533.217 834.247L538.174 842.396L534.544 844.427ZM610.402 801.982L606.05 793.495L601.514 801.891L597.923 799.731L603.175 791.728L593.607 792.018L593.645 787.827L603.173 788.353L598.217 780.205L601.847 778.174L606.198 786.661L610.734 778.265L614.326 780.426L609.073 788.428L618.641 788.138L618.604 792.33L609.075 791.803L614.032 799.952L610.402 801.982ZM686.26 759.538L681.908 751.051L677.372 759.447L673.781 757.287L679.033 749.284L669.465 749.574L669.503 745.383L679.031 745.909L674.075 737.761L677.705 735.73L682.056 744.217L686.592 735.821L690.184 737.981L684.931 745.984L694.499 745.694L694.462 749.885L684.933 749.359L689.89 757.507L686.26 759.538ZM762.118 717.094L757.766 708.607L753.23 717.003L749.639 714.842L754.891 706.84L745.323 707.13L745.361 702.938L754.889 703.465L749.933 695.316L753.563 693.286L757.914 701.773L762.45 693.377L766.042 695.537L760.789 703.54L770.357 703.25L770.32 707.441L760.791 706.914L765.748 715.063L762.118 717.094ZM837.976 674.65L833.625 666.163L829.088 674.559L825.497 672.398L830.749 664.395L821.181 664.685L821.219 660.494L830.748 661.021L825.791 652.872L829.421 650.841L833.772 659.328L838.308 650.932L841.9 653.093L836.647 661.095L846.215 660.806L846.178 664.997L836.649 664.47L841.606 672.619L837.976 674.65ZM418.961 993.894L414.61 985.407L410.073 993.803L406.482 991.642L411.734 983.64L402.166 983.93L402.204 979.738L411.733 980.265L406.776 972.116L410.406 970.086L414.757 978.573L419.293 970.176L422.885 972.337L417.632 980.34L427.201 980.05L427.163 984.241L417.634 983.714L422.591 991.863L418.961 993.894ZM494.819 951.45L490.468 942.962L485.932 951.359L482.34 949.198L487.592 941.195L478.024 941.485L478.062 937.294L487.591 937.821L482.634 929.672L486.264 927.641L490.615 936.128L495.151 927.732L498.743 929.893L493.49 937.895L503.059 937.605L503.021 941.797L493.492 941.27L498.449 949.419L494.819 951.45ZM570.677 909.005L566.326 900.518L561.79 908.914L558.198 906.754L563.45 898.751L553.882 899.041L553.92 894.85L563.449 895.376L558.492 887.228L562.122 885.197L566.473 893.684L571.009 885.288L574.601 887.448L569.348 895.451L578.917 895.161L578.879 899.352L569.35 898.826L574.307 906.974L570.677 909.005ZM646.535 866.561L642.184 858.074L637.648 866.47L634.056 864.31L639.308 856.307L629.74 856.597L629.778 852.405L639.307 852.932L634.35 844.784L637.98 842.753L642.331 851.24L646.867 842.844L650.459 845.004L645.206 853.007L654.775 852.717L654.737 856.908L645.208 856.382L650.165 864.53L646.535 866.561ZM722.393 824.117L718.042 815.63L713.506 824.026L709.914 821.865L715.166 813.863L705.598 814.152L705.636 809.961L715.165 810.488L710.208 802.339L713.838 800.308L718.189 808.795L722.725 800.399L726.317 802.56L721.065 810.563L730.633 810.273L730.595 814.464L721.066 813.937L726.023 822.086L722.393 824.117ZM798.251 781.672L793.9 773.185L789.364 781.581L785.772 779.421L791.024 771.418L781.456 771.708L781.494 767.517L791.023 768.044L786.066 759.895L789.696 757.864L794.047 766.351L798.583 757.955L802.175 760.116L796.923 768.118L806.491 767.828L806.453 772.02L796.924 771.493L801.881 779.642L798.251 781.672ZM874.109 739.228L869.758 730.741L865.222 739.137L861.63 736.977L866.882 728.974L857.314 729.264L857.352 725.073L866.881 725.599L861.924 717.451L865.554 715.42L869.905 723.907L874.441 715.511L878.033 717.671L872.781 725.674L882.349 725.384L882.311 729.575L872.782 729.049L877.739 737.197L874.109 739.228ZM455.094 1058.47L450.743 1049.99L446.207 1058.38L442.615 1056.22L447.868 1048.22L438.299 1048.51L438.337 1044.32L447.866 1044.84L442.909 1036.69L446.539 1034.66L450.89 1043.15L455.426 1034.76L459.018 1036.92L453.766 1044.92L463.334 1044.63L463.296 1048.82L453.767 1048.29L458.724 1056.44L455.094 1058.47ZM530.952 1016.03L526.601 1007.54L522.065 1015.94L518.473 1013.78L523.726 1005.77L514.157 1006.06L514.195 1001.87L523.724 1002.4L518.767 994.251L522.397 992.22L526.748 1000.71L531.284 992.311L534.876 994.471L529.624 1002.47L539.192 1002.18L539.154 1006.38L529.625 1005.85L534.582 1014L530.952 1016.03ZM606.81 973.584L602.459 965.097L597.923 973.493L594.331 971.332L599.584 963.33L590.015 963.62L590.053 959.428L599.582 959.955L594.625 951.806L598.255 949.776L602.606 958.263L607.142 949.866L610.734 952.027L605.482 960.03L615.05 959.74L615.012 963.931L605.483 963.404L610.44 971.553L606.81 973.584ZM682.668 931.14L678.317 922.653L673.781 931.049L670.189 928.888L675.442 920.885L665.873 921.175L665.911 916.984L675.44 917.511L670.483 909.362L674.113 907.331L678.464 915.818L683 907.422L686.592 909.583L681.34 917.585L690.908 917.296L690.87 921.487L681.341 920.96L686.298 929.109L682.668 931.14ZM758.526 888.695L754.175 880.208L749.639 888.604L746.047 886.444L751.3 878.441L741.731 878.731L741.769 874.54L751.298 875.066L746.341 866.918L749.971 864.887L754.322 873.374L758.859 864.978L762.45 867.138L757.198 875.141L766.766 874.851L766.728 879.043L757.199 878.516L762.156 886.664L758.526 888.695ZM834.384 846.251L830.033 837.764L825.497 846.16L821.905 844L827.158 835.997L817.59 836.287L817.627 832.095L827.156 832.622L822.199 824.474L825.829 822.443L830.18 830.93L834.717 822.534L838.308 824.694L833.056 832.697L842.624 832.407L842.586 836.598L833.057 836.072L838.014 844.22L834.384 846.251ZM910.242 803.807L905.891 795.32L901.355 803.716L897.763 801.555L903.016 793.553L893.448 793.842L893.485 789.651L903.014 790.178L898.057 782.029L901.687 779.998L906.039 788.485L910.575 780.089L914.166 782.25L908.914 790.253L918.482 789.963L918.444 794.154L908.916 793.627L913.872 801.776L910.242 803.807ZM491.227 1123.05L486.876 1114.56L482.34 1122.96L478.748 1120.8L484.001 1112.8L474.433 1113.09L474.47 1108.9L483.999 1109.42L479.042 1101.27L482.672 1099.24L487.024 1107.73L491.56 1099.33L495.151 1101.49L489.899 1109.5L499.467 1109.21L499.429 1113.4L489.901 1112.87L494.857 1121.02L491.227 1123.05ZM567.085 1080.61L562.734 1072.12L558.198 1080.52L554.606 1078.36L559.859 1070.35L550.291 1070.64L550.328 1066.45L559.857 1066.98L554.9 1058.83L558.53 1056.8L562.882 1065.29L567.418 1056.89L571.009 1059.05L565.757 1067.05L575.325 1066.76L575.287 1070.95L565.759 1070.43L570.715 1078.58L567.085 1080.61ZM642.943 1038.16L638.592 1029.68L634.056 1038.07L630.464 1035.91L635.717 1027.91L626.149 1028.2L626.186 1024.01L635.715 1024.53L630.759 1016.38L634.388 1014.35L638.74 1022.84L643.276 1014.45L646.867 1016.61L641.615 1024.61L651.183 1024.32L651.145 1028.51L641.617 1027.98L646.573 1036.13L642.943 1038.16ZM718.801 995.718L714.45 987.231L709.914 995.627L706.322 993.467L711.575 985.464L702.007 985.754L702.044 981.563L711.573 982.089L706.617 973.941L710.246 971.91L714.598 980.397L719.134 972.001L722.725 974.161L717.473 982.164L727.041 981.874L727.003 986.065L717.475 985.539L722.431 993.687L718.801 995.718ZM794.66 953.274L790.308 944.787L785.772 953.183L782.18 951.022L787.433 943.02L777.865 943.31L777.902 939.118L787.431 939.645L782.475 931.496L786.104 929.466L790.456 937.953L794.992 929.557L798.583 931.717L793.331 939.72L802.899 939.43L802.861 943.621L793.333 943.094L798.289 951.243L794.66 953.274ZM870.518 910.83L866.166 902.343L861.63 910.739L858.038 908.578L863.291 900.576L853.723 900.865L853.76 896.674L863.289 897.201L858.333 889.052L861.962 887.021L866.314 895.508L870.85 887.112L874.441 889.273L869.189 897.275L878.757 896.986L878.719 901.177L869.191 900.65L874.147 908.799L870.518 910.83ZM946.376 868.385L942.024 859.898L937.488 868.294L933.896 866.134L939.149 858.131L929.581 858.421L929.619 854.23L939.147 854.756L934.191 846.608L937.82 844.577L942.172 853.064L946.708 844.668L950.3 846.828L945.047 854.831L954.615 854.541L954.577 858.733L945.049 858.206L950.005 866.354L946.376 868.385ZM527.361 1187.63L523.009 1179.14L518.473 1187.54L514.881 1185.38L520.134 1177.38L510.566 1177.67L510.604 1173.47L520.132 1174L515.176 1165.85L518.805 1163.82L523.157 1172.31L527.693 1163.91L531.285 1166.07L526.032 1174.08L535.6 1173.79L535.562 1177.98L526.034 1177.45L530.99 1185.6L527.361 1187.63ZM603.219 1145.19L598.867 1136.7L594.331 1145.09L590.739 1142.93L595.992 1134.93L586.424 1135.22L586.462 1131.03L595.99 1131.56L591.034 1123.41L594.663 1121.38L599.015 1129.86L603.551 1121.47L607.143 1123.63L601.89 1131.63L611.458 1131.34L611.42 1135.53L601.892 1135.01L606.848 1143.15L603.219 1145.19ZM679.077 1102.74L674.725 1094.25L670.189 1102.65L666.597 1100.49L671.85 1092.49L662.282 1092.78L662.32 1088.59L671.848 1089.11L666.892 1080.96L670.521 1078.93L674.873 1087.42L679.409 1079.02L683.001 1081.18L677.748 1089.19L687.316 1088.9L687.278 1093.09L677.75 1092.56L682.706 1100.71L679.077 1102.74ZM754.935 1060.3L750.583 1051.81L746.047 1060.21L742.455 1058.05L747.708 1050.04L738.14 1050.33L738.178 1046.14L747.706 1046.67L742.75 1038.52L746.379 1036.49L750.731 1044.98L755.267 1036.58L758.859 1038.74L753.606 1046.74L763.174 1046.45L763.136 1050.64L753.608 1050.12L758.564 1058.27L754.935 1060.3ZM830.793 1017.85L826.441 1009.37L821.905 1017.76L818.313 1015.6L823.566 1007.6L813.998 1007.89L814.036 1003.7L823.564 1004.22L818.608 996.075L822.237 994.044L826.589 1002.53L831.125 994.135L834.717 996.296L829.464 1004.3L839.032 1004.01L838.994 1008.2L829.466 1007.67L834.422 1015.82L830.793 1017.85ZM906.651 975.408L902.299 966.921L897.763 975.317L894.171 973.157L899.424 965.154L889.856 965.444L889.894 961.253L899.422 961.779L894.466 953.631L898.095 951.6L902.447 960.087L906.983 951.691L910.575 953.851L905.322 961.854L914.89 961.564L914.852 965.755L905.324 965.229L910.28 973.377L906.651 975.408ZM982.509 932.964L978.157 924.477L973.621 932.873L970.029 930.712L975.282 922.71L965.714 923L965.752 918.808L975.28 919.335L970.324 911.186L973.953 909.156L978.305 917.643L982.841 909.247L986.433 911.407L981.18 919.41L990.748 919.12L990.71 923.311L981.182 922.785L986.138 930.933L982.509 932.964ZM563.494 1252.21L559.142 1243.72L554.606 1252.12L551.014 1249.96L556.267 1241.95L546.699 1242.24L546.737 1238.05L556.265 1238.58L551.309 1230.43L554.938 1228.4L559.29 1236.89L563.826 1228.49L567.418 1230.65L562.165 1238.65L571.733 1238.36L571.695 1242.56L562.167 1242.03L567.123 1250.18L563.494 1252.21ZM639.352 1209.76L635 1201.28L630.464 1209.67L626.872 1207.51L632.125 1199.51L622.557 1199.8L622.595 1195.61L632.123 1196.13L627.167 1187.99L630.796 1185.96L635.148 1194.44L639.684 1186.05L643.276 1188.21L638.023 1196.21L647.591 1195.92L647.553 1200.11L638.025 1199.58L642.981 1207.73L639.352 1209.76ZM715.21 1167.32L710.858 1158.83L706.322 1167.23L702.73 1165.07L707.983 1157.07L698.415 1157.36L698.453 1153.16L707.981 1153.69L703.025 1145.54L706.654 1143.51L711.006 1152L715.542 1143.6L719.134 1145.76L713.881 1153.77L723.449 1153.48L723.411 1157.67L713.883 1157.14L718.839 1165.29L715.21 1167.32ZM791.068 1124.88L786.716 1116.39L782.18 1124.78L778.588 1122.62L783.841 1114.62L774.273 1114.91L774.311 1110.72L783.839 1111.25L778.883 1103.1L782.512 1101.07L786.864 1109.55L791.4 1101.16L794.992 1103.32L789.739 1111.32L799.307 1111.03L799.269 1115.22L789.741 1114.7L794.697 1122.84L791.068 1124.88ZM866.926 1082.43L862.574 1073.94L858.038 1082.34L854.447 1080.18L859.699 1072.18L850.131 1072.47L850.169 1068.28L859.697 1068.8L854.741 1060.65L858.37 1058.62L862.722 1067.11L867.258 1058.71L870.85 1060.87L865.597 1068.88L875.165 1068.59L875.128 1072.78L865.599 1072.25L870.555 1080.4L866.926 1082.43ZM942.784 1039.99L938.432 1031.5L933.896 1039.9L930.305 1037.74L935.557 1029.73L925.989 1030.02L926.027 1025.83L935.555 1026.36L930.599 1018.21L934.228 1016.18L938.58 1024.67L943.116 1016.27L946.708 1018.43L941.455 1026.43L951.023 1026.14L950.986 1030.33L941.457 1029.81L946.413 1037.96L942.784 1039.99ZM1018.64 997.542L1014.29 989.055L1009.75 997.452L1006.16 995.291L1011.42 987.288L1001.85 987.578L1001.88 983.387L1011.41 983.914L1006.46 975.765L1010.09 973.734L1014.44 982.221L1018.97 973.825L1022.57 975.986L1017.31 983.988L1026.88 983.698L1026.84 987.89L1017.32 987.363L1022.27 995.512L1018.64 997.542Z" fill="url(#paint0_linear_47_143)" fill-opacity="0.13"/>
<defs>
<linearGradient id="paint0_linear_47_143" x1="97.8038" y1="207.649" x2="708.04" y2="1027.78" gradientUnits="userSpaceOnUse">
<stop stop-color="white"/>
<stop offset="1" stop-color="white" stop-opacity="0.06"/>
</linearGradient>
</defs>
</svg>
