<svg width="237" height="287" viewBox="0 0 237 287" fill="none" xmlns="http://www.w3.org/2000/svg">
<path fill-rule="evenodd" clip-rule="evenodd" d="M9.5 71.5C9.5 34.4746 35.972 5 68 5C100.028 5 126.5 34.4746 126.5 71.5H131.5C131.5 32.3101 103.351 0 68 0C32.6493 0 4.5 32.3101 4.5 71.5H9.5ZM13 74.5H124C129.523 74.5 134 78.9772 134 84.5V195.5C134 201.023 129.523 205.5 124 205.5H13C7.47716 205.5 3 201.023 3 195.5V84.5C3 78.9772 7.47715 74.5 13 74.5ZM0 84.5C0 77.3203 5.8203 71.5 13 71.5H124C131.18 71.5 137 77.3203 137 84.5V195.5C137 202.68 131.18 208.5 124 208.5H13C5.8203 208.5 0 202.68 0 195.5V84.5Z" fill="white"/>
<path fill-rule="evenodd" clip-rule="evenodd" d="M220.051 196.793C225.921 208.058 221.546 221.949 210.281 227.818C199.016 233.687 185.125 229.313 179.256 218.048C173.387 206.782 177.761 192.892 189.026 187.023C200.292 181.154 214.182 185.528 220.051 196.793ZM223.599 194.945C230.489 208.169 225.354 224.475 212.129 231.365C198.905 238.255 182.599 233.12 175.709 219.896C168.819 206.671 173.954 190.365 187.178 183.475C200.403 176.585 216.709 181.721 223.599 194.945ZM94.2251 261.738L107.263 254.946L120.094 279.572L121.867 278.648L109.037 254.021L134.787 240.605L147.618 265.232L149.392 264.308L136.561 239.681L175.349 219.472L173.963 216.812L92.8389 259.078L94.2251 261.738Z" fill="white"/>
<path fill-rule="evenodd" clip-rule="evenodd" d="M62.7466 117H61.582L61.0072 118.013L54.8898 128.791H43.9447H42.3619L41.9982 130.331L36.5807 153.276L36 155.736H38.5272H78.999H98.4383H100.438V153.736V143.857V143.406L100.245 143L88.4543 118.143L87.9122 117H86.6473H62.7466ZM57.7938 131.778L63.9111 121H85.3824L96.4383 144.307V151.736H78.999H41.0544L45.5275 132.791H56.0544H57.2189L57.7938 131.778ZM72.3068 130.154L76.7683 143.538L78.6657 142.906L74.2042 129.521L72.3068 130.154ZM88.878 143.538L83.1418 128.879L85.0043 128.15L90.7405 142.809L88.878 143.538ZM57.0104 137.165L52.549 146.725L54.3613 147.571L58.8228 138.01L57.0104 137.165Z" fill="white"/>
</svg>
