<svg width="79" height="47" viewBox="0 0 79 47" fill="none" xmlns="http://www.w3.org/2000/svg">
<path fill-rule="evenodd" clip-rule="evenodd" d="M32.4186 0H31.2541L30.6792 1.01279L22.9946 14.5524H9.21345H7.63068L7.26697 16.0928L0.580735 44.411L0 46.8706H2.52721H52.4773H76.4691H78.4691V44.8706V32.678V32.2277L78.2761 31.8208L63.7237 1.14283L63.1816 0H61.9167H32.4186ZM25.8985 17.5396L33.5832 4H60.6518L74.4691 33.1283V42.8706H52.4773H5.05443L10.7962 18.5524H24.1591H25.3237L25.8985 17.5396ZM44.2178 15.7658L49.7241 32.2847L51.6215 31.6522L46.1152 15.1333L44.2178 15.7658ZM64.6699 32.2847L57.5903 14.1925L59.4528 13.4637L66.5324 31.5559L64.6699 32.2847ZM25.3391 24.4186L19.8328 36.2178L21.6451 37.0636L27.1515 25.2643L25.3391 24.4186Z" fill="white"/>
</svg>
